<svg xmlns="http://www.w3.org/2000/svg" width="800" height="186" viewBox="0 0 800 186" role="img" aria-labelledby="title desc">
  <title id="title">Meloark</title>
  <desc id="desc">A home for your music. A local-first player with playlists and synchronized lyrics.</desc>
  <defs>
    <linearGradient id="surface" x2="1" y2="1"><stop stop-color="#1c1816"/><stop offset="1" stop-color="#261d17"/></linearGradient>
    <linearGradient id="sleeve" x2="1" y2="1"><stop stop-color="#36271e"/><stop offset="1" stop-color="#1c1816"/></linearGradient>
  </defs>
  <rect x=".5" y=".5" width="799" height="185" rx="16" fill="url(#surface)" stroke="#493427"/>
  <g transform="translate(39 36)">
    <rect x="19" y="-4" width="106" height="112" rx="8" transform="rotate(8 72 52)" fill="#36271e" stroke="#493427"/>
    <rect x="7" y="1" width="106" height="112" rx="8" transform="rotate(-7 60 57)" fill="#1c1816" stroke="#493427"/>
    <rect width="106" height="112" rx="8" fill="url(#sleeve)" stroke="#faa544" stroke-opacity=".5"/>
    <circle cx="53" cy="54" r="35" fill="#201a17" stroke="#faa544" stroke-opacity=".3"/>
    <circle cx="53" cy="54" r="28" fill="none" stroke="#faa544" stroke-opacity=".14"/>
    <circle cx="53" cy="54" r="21" fill="none" stroke="#faa544" stroke-opacity=".14"/>
    <circle cx="53" cy="54" r="11" fill="#faa544"/>
    <circle cx="53" cy="54" r="2.2" fill="#201a17"/>
    <path d="M14 99h20" stroke="#faa544" stroke-width="2" stroke-linecap="round"/>
  </g>
  <g font-family="Arial, Helvetica, sans-serif" fill="#f8f1e6"><text x="204" y="43" font-size="13" font-weight="600" letter-spacing="1.6" fill="#faa544">CURRENTLY BUILDING</text><text x="201" y="91" font-size="42" font-weight="700" letter-spacing="-1.3">Meloark</text><text x="204" y="122" font-size="19" fill="#b6a89a">A home for your music.</text><text x="204" y="153" font-size="13" fill="#b6a89a">Local files · Playlists · Synced lyrics</text></g>
  <g transform="translate(750 93)" stroke="#faa544" fill="none">
    <circle r="17" stroke-opacity=".3"/>
    <path d="M-5 5 5-5M-4-5h9v9" stroke-width="1.6" stroke-linecap="round" stroke-linejoin="round"/>
  </g>
</svg>
