<svg xmlns="http://www.w3.org/2000/svg" width="480" height="268" viewBox="0 0 480 268" role="img" aria-labelledby="title desc">
  <title id="title">Public GitHub stats for Mark Dsilva</title>
  <desc id="desc">3 public repositories, 3 primary languages, 0 repository stars. Includes forks. Updated 05 Oct 2026.</desc>
  <defs><clipPath id="bar"><rect x="24" y="140" width="432" height="8" rx="4"/></clipPath></defs>
  <rect x="0.5" y="0.5" width="479" height="267" rx="20" fill="#191714" stroke="#3a332b"/>
  <g font-family="Segoe UI, Helvetica, Arial, sans-serif">
    <text x="24" y="63" font-size="35" font-weight="650" fill="#efb85c">03</text><text x="24" y="89" font-size="12" fill="#b8b0a2">Public repos</text><text x="172" y="63" font-size="35" font-weight="650" fill="#faf6eb">03</text><text x="172" y="89" font-size="12" fill="#b8b0a2">Main languages</text><text x="320" y="63" font-size="35" font-weight="650" fill="#faf6eb">00</text><text x="320" y="89" font-size="12" fill="#b8b0a2">Repo stars</text>
    <path d="M156 28V94M304 28V94M24 115H456" stroke="#3a332b"/>
    <g clip-path="url(#bar)"><rect x="24.000" y="140" width="248.484" height="8" fill="#efb85c"/><rect x="272.484" y="140" width="138.981" height="8" fill="#c88a55"/><rect x="411.465" y="140" width="39.044" height="8" fill="#e3cfab"/><rect x="450.508" y="140" width="5.492" height="8" fill="#9b8b75"/></g>
    <circle cx="28" cy="172" r="4" fill="#efb85c"/><text x="41" y="177" font-size="14" fill="#b8b0a2">TypeScript <tspan fill="#faf6eb" font-weight="600">58%</tspan></text><circle cx="252" cy="172" r="4" fill="#c88a55"/><text x="265" y="177" font-size="14" fill="#b8b0a2">Python <tspan fill="#faf6eb" font-weight="600">32%</tspan></text><circle cx="28" cy="200" r="4" fill="#e3cfab"/><text x="41" y="205" font-size="14" fill="#b8b0a2">CSS <tspan fill="#faf6eb" font-weight="600">9%</tspan></text><circle cx="252" cy="200" r="4" fill="#9b8b75"/><text x="265" y="205" font-size="14" fill="#b8b0a2">Other <tspan fill="#faf6eb" font-weight="600">1%</tspan></text>
    <text x="24" y="238" font-size="11" fill="#b8b0a2">Public repositories, including forks</text>
    <text x="24" y="255" font-size="11" fill="#b8b0a2">Updated 05 Oct 2026</text>
  </g>
</svg>
